<?xml version="1.0" standalone="no"?>
<!DOCTYPE svg PUBLIC "-//W3C//DTD SVG 20010904//EN"
 "http://www.w3.org/TR/2001/REC-SVG-20010904/DTD/svg10.dtd">
<svg version="1.0" xmlns="http://www.w3.org/2000/svg"
 width="560.000000pt" height="560.000000pt" viewBox="0 0 560.000000 560.000000"
 preserveAspectRatio="xMidYMid meet">
<metadata>
Created by potrace 1.14, written by Peter Selinger 2001-2017
</metadata>
<g transform="translate(0.000000,560.000000) scale(0.100000,-0.100000)"
fill="#000000" stroke="none">
<path d="M2658 3414 c-2 -1 -61 -4 -133 -8 -71 -3 -148 -7 -170 -10 -22 -3
-65 -8 -95 -11 -30 -3 -68 -9 -85 -12 -16 -3 -41 -6 -55 -8 -14 -1 -52 -8 -85
-15 -33 -7 -67 -14 -75 -15 -8 -2 -15 -4 -15 -5 0 -2 -24 -7 -72 -14 -21 -3
-62 -12 -92 -20 -30 -8 -57 -15 -60 -14 -3 0 -8 -1 -11 -2 -3 -1 -12 -3 -20
-5 -8 -1 -35 -9 -60 -16 -25 -7 -48 -13 -52 -15 -5 -1 -10 -3 -13 -4 -3 -1
-13 -3 -22 -5 -10 -1 -25 -4 -33 -8 -8 -3 -35 -12 -60 -18 -25 -7 -47 -13 -50
-14 -3 -1 -17 -5 -32 -9 -16 -5 -28 -12 -28 -16 0 -7 122 -57 160 -65 8 -2 51
-16 95 -30 44 -15 87 -28 95 -30 8 -2 15 -4 15 -5 0 -1 7 -3 15 -6 8 -2 71
-20 140 -40 176 -51 249 -69 313 -79 16 -3 34 -8 40 -12 6 -4 23 -8 37 -10 29
-4 64 -11 68 -13 1 -2 10 -3 20 -4 16 -2 84 -14 127 -22 11 -3 34 -6 50 -9 81
-11 112 -16 130 -20 30 -6 183 -18 242 -19 29 -1 53 -3 53 -6 0 -7 369 -4 455
4 84 7 183 19 263 32 78 12 101 14 225 19 71 3 132 6 135 8 11 6 452 -1 532
-8 41 -4 93 -8 115 -10 69 -5 149 -15 168 -21 10 -3 32 -8 50 -10 18 -3 41 -7
52 -8 11 -2 38 -7 60 -11 22 -3 54 -10 70 -15 17 -5 57 -16 90 -25 33 -9 79
-23 101 -31 45 -16 84 -25 84 -19 0 15 -108 102 -122 97 -4 -1 -8 2 -8 6 0 10
-196 102 -230 108 -4 0 -73 15 -92 20 -5 1 -9 3 -10 4 -2 1 -14 4 -28 6 -32 4
-75 12 -75 14 0 13 -497 19 -625 7 -140 -13 -165 -16 -210 -23 -25 -3 -58 -8
-75 -9 -16 -2 -30 -4 -30 -5 0 -2 -12 -4 -100 -15 -204 -24 -288 -29 -500 -29
-217 0 -326 7 -460 28 -22 4 -56 9 -75 12 -19 3 -43 7 -52 10 -10 3 -30 7 -45
10 -16 3 -36 7 -45 10 -9 3 -25 7 -36 9 -39 7 -168 46 -184 55 -10 6 -24 10
-31 10 -15 0 -125 42 -177 68 -19 9 -53 33 -74 53 -61 57 -39 81 85 94 35 4
66 8 69 10 8 4 158 18 220 19 30 1 60 4 65 7 11 6 415 2 490 -5 63 -6 122 -14
160 -22 17 -3 39 -7 50 -9 153 -26 393 -123 475 -192 16 -13 33 -23 39 -23 6
0 11 -4 11 -9 0 -16 33 -18 66 -4 17 6 44 15 60 18 33 7 43 10 64 18 8 3 21 7
28 9 13 3 -22 21 -123 64 -22 10 -42 18 -45 18 -8 2 -72 27 -115 46 -22 9 -67
27 -100 40 -33 13 -75 29 -93 37 -26 11 -106 38 -142 48 -3 1 -25 8 -50 15
-25 8 -49 15 -55 16 -5 1 -12 3 -15 4 -7 2 -42 11 -65 15 -157 30 -192 34
-300 41 -49 2 -109 6 -132 8 -24 1 -44 2 -45 0z"/>
<path d="M667 3113 c-1 0 -36 -4 -77 -7 -99 -8 -150 -14 -180 -21 -13 -4 -47
-9 -74 -11 -27 -3 -54 -7 -58 -10 -5 -3 -21 -7 -36 -10 -79 -12 -92 -16 -92
-24 0 -9 25 -42 56 -74 7 -7 22 -32 34 -57 25 -47 34 -152 19 -216 -9 -43 6
-42 27 2 9 19 20 35 25 35 5 0 9 6 9 14 0 11 52 63 95 94 41 31 138 60 188 57
15 -1 27 1 27 5 0 8 -47 50 -52 45 -1 -1 -11 5 -21 15 -17 17 -16 18 30 30 26
7 64 14 83 17 19 3 60 8 90 12 91 12 296 5 440 -15 19 -3 51 -7 70 -10 45 -6
88 -13 125 -20 17 -3 41 -7 55 -9 24 -4 79 -14 110 -22 8 -2 27 -5 42 -7 15
-3 35 -7 45 -10 10 -3 34 -8 53 -11 19 -3 42 -8 50 -10 8 -2 26 -6 40 -9 14
-3 39 -8 55 -11 17 -3 45 -10 64 -15 19 -5 38 -7 43 -4 4 3 8 1 8 -5 0 -6 7
-8 15 -5 8 3 20 2 26 -2 7 -4 29 -9 48 -10 20 -2 43 -5 51 -7 15 -4 62 -13
115 -22 17 -3 53 -8 80 -11 28 -3 53 -8 58 -11 4 -2 7 0 7 6 0 10 -21 18 -67
24 -12 2 -26 6 -29 10 -4 4 -17 7 -29 7 -12 0 -25 3 -29 7 -3 4 -17 8 -29 10
-12 2 -31 7 -42 12 -11 5 -47 17 -80 26 -33 9 -72 21 -87 25 -16 5 -28 7 -28
4 0 -3 -10 1 -22 7 -13 7 -32 14 -43 15 -37 6 -50 9 -62 17 -7 5 -13 5 -13 1
0 -3 -7 -1 -15 6 -8 7 -15 10 -15 7 0 -3 -15 -1 -32 4 -18 6 -41 12 -51 14
-10 2 -27 7 -37 10 -10 3 -27 7 -37 9 -10 2 -37 9 -60 15 -45 12 -306 59 -363
66 -19 2 -51 6 -70 9 -73 12 -445 27 -453 19z"/>
<path d="M2720 2660 c-81 -14 -130 -83 -130 -182 0 -131 77 -200 206 -185 120
13 184 157 125 281 -36 72 -107 103 -201 86z m107 -86 c26 -20 28 -27 28 -92
0 -60 -3 -74 -23 -95 -43 -45 -110 -37 -146 17 -20 32 -20 120 1 151 31 46 96
55 140 19z"/>
<path d="M3211 2648 c-69 -34 -78 -109 -20 -164 16 -15 29 -25 29 -22 0 3 30
-5 67 -16 44 -15 67 -28 69 -39 2 -19 -20 -47 -39 -48 -7 0 -21 -2 -31 -4 -13
-2 -32 9 -52 31 -34 36 -80 46 -90 20 -9 -23 18 -68 56 -94 30 -20 45 -23 100
-20 75 4 115 27 128 73 22 77 -17 132 -109 154 -30 7 -63 19 -73 27 -43 31 25
70 73 42 14 -8 25 -20 24 -26 -2 -8 13 -12 43 -12 42 0 45 1 39 23 -12 39 -35
68 -63 78 -50 19 -109 18 -151 -3z"/>
<path d="M3590 2653 c-53 -21 -91 -82 -97 -154 -12 -138 69 -221 199 -206 90
11 148 77 150 170 1 92 -37 164 -102 189 -39 15 -111 16 -150 1z m140 -78 c33
-30 43 -109 21 -163 -13 -30 -64 -61 -94 -56 -10 1 -29 10 -43 19 -67 44 -57
189 16 218 26 10 80 0 100 -18z"/>
<path d="M4765 2660 c-80 -24 -117 -76 -121 -169 -5 -127 56 -201 167 -201 39
0 92 21 114 44 21 23 39 66 29 75 -5 5 -23 12 -40 15 -28 6 -33 4 -44 -23 -15
-38 -56 -53 -96 -36 -39 16 -53 49 -51 124 2 55 5 66 29 86 37 31 90 27 119
-9 23 -29 27 -30 63 -16 26 9 26 10 10 43 -9 19 -28 41 -43 50 -30 18 -104 27
-136 17z"/>
<path d="M359 2653 c-7 -48 -2 -346 6 -352 9 -6 33 -7 63 -2 4 0 7 30 7 66
l-1 65 44 0 c101 0 149 33 156 108 4 49 -18 90 -57 107 -35 14 -216 21 -218 8z
m182 -79 c31 -38 5 -74 -55 -76 -45 -2 -51 4 -52 53 l-1 39 47 0 c31 0 52 -5
61 -16z"/>
<path d="M741 2598 c-13 -35 -44 -114 -68 -177 -47 -119 -47 -136 2 -126 11 2
26 4 33 4 6 1 12 9 12 19 0 10 6 27 14 38 12 17 25 20 78 20 l63 -1 20 -40
c18 -37 24 -41 58 -40 20 0 37 2 37 5 0 3 -31 84 -69 180 l-70 175 -43 3 -43
3 -24 -63z m88 -91 c5 -18 12 -39 15 -47 5 -13 -2 -16 -34 -16 -22 0 -40 2
-40 4 0 17 36 100 42 96 4 -3 11 -19 17 -37z"/>
<path d="M1039 2638 c0 -13 0 -92 0 -177 -1 -158 3 -173 40 -166 9 2 21 4 27
4 7 1 11 23 12 56 0 45 4 59 24 75 30 25 32 25 49 -7 11 -22 47 -80 74 -121 6
-8 85 -9 91 -1 3 6 -24 55 -60 110 -36 54 -66 102 -66 105 0 3 27 33 60 66 33
34 60 65 60 69 0 5 -21 9 -47 9 -46 0 -50 -2 -115 -72 -50 -53 -68 -66 -69
-52 0 10 -2 42 -2 69 l-2 50 -37 3 c-34 3 -38 1 -39 -20z"/>
<path d="M1644 2648 c-5 -7 -9 -17 -10 -23 -1 -5 -29 -79 -63 -164 -65 -165
-66 -177 -7 -166 34 6 37 8 40 27 7 44 23 54 87 53 63 0 63 0 83 -40 19 -35
25 -39 59 -40 21 -1 37 3 37 10 0 6 -31 88 -68 181 l-68 169 -41 3 c-26 2 -44
-2 -49 -10z m71 -153 c13 -45 12 -49 -17 -50 -44 -3 -52 8 -34 43 9 17 16 38
16 47 0 25 25 -3 35 -40z"/>
<path d="M1921 2520 c2 -194 20 -224 141 -229 44 -2 67 3 97 20 47 26 54 49
56 209 2 139 1 142 -44 138 l-36 -3 -1 -120 c0 -136 -6 -161 -37 -171 -68 -24
-96 11 -96 119 1 45 0 103 0 129 l-1 47 -40 -1 -41 0 2 -138z"/>
<path d="M2277 2654 c-4 -4 -7 -20 -7 -36 0 -27 2 -28 53 -28 l52 0 0 -148 0
-147 28 1 c15 1 33 2 40 3 9 1 12 35 11 136 0 74 2 139 5 144 4 5 27 11 51 13
43 3 45 5 45 33 l0 30 -136 3 c-74 1 -138 -1 -142 -4z"/>
<path d="M3909 2638 c-6 -123 2 -260 15 -287 20 -38 67 -61 128 -61 71 0 116
22 134 65 15 36 23 272 10 293 -3 6 -21 10 -40 10 l-34 0 0 -128 c0 -137 -8
-165 -44 -171 -77 -14 -91 14 -92 174 l-1 122 -37 2 c-33 3 -38 1 -39 -19z"/>
<path d="M4287 2652 c-7 -11 -5 -352 2 -353 67 -9 72 -4 72 72 1 35 3 67 5 70
2 4 16 4 32 0 23 -6 75 -67 112 -130 8 -15 87 -23 96 -10 2 4 -1 13 -8 21 -7
7 -22 29 -32 48 -10 19 -30 47 -44 62 l-25 27 26 6 c35 9 61 65 52 112 -7 40
-22 59 -57 71 -28 11 -225 14 -231 4z m201 -75 c16 -12 16 -42 -1 -55 -11 -9
-79 -17 -114 -13 -8 0 -13 16 -13 40 0 39 1 40 38 43 44 4 72 -1 90 -15z"/>
<path d="M5036 2653 c-9 -9 -7 -353 2 -354 20 -4 248 -5 258 -2 6 2 11 18 10
36 l-1 32 -97 -1 -98 -1 0 43 0 44 88 0 88 0 0 33 -1 32 -70 2 c-38 1 -78 2
-87 2 -14 1 -18 10 -18 36 l0 35 63 1 c126 2 122 1 125 36 l3 33 -129 -1 c-72
0 -133 -3 -136 -6z"/>
</g>
</svg>
